<?xml version="1.0" encoding="utf-8"?>
<!-- Generator: Adobe Illustrator 26.4.1, SVG Export Plug-In . SVG Version: 6.00 Build 0)  -->
<svg version="1.1" xmlns="http://www.w3.org/2000/svg" xmlns:xlink="http://www.w3.org/1999/xlink" x="0px" y="0px"
	 viewBox="0 0 722.63 707.65" style="enable-background:new 0 0 722.63 707.65;" xml:space="preserve">
<style type="text/css">
	.st0{fill:#FFFFFF;}
	.st1{fill:#1D1D1B;}
</style>
<g id="Слой_1">
</g>
<g id="Слой_2">
	<g>
		<g>
			<path class="st0" d="M483.97,325.81c22.81,0,40.83-4.16,54.03-12.47c13.2-8.31,19.8-19.47,19.8-33.49
				c0-7.82-3.1-14.34-9.29-19.56c-6.19-5.21-13.86-9.45-22.98-12.71c-9.13-3.25-22-7-38.62-11.24c-22.49-5.87-41-11.65-55.5-17.36
				c-14.51-5.7-26.89-14.1-37.16-25.18c-10.27-11.08-15.4-25.75-15.4-44c0-7.49,0.65-14.5,1.96-21.02
				c5.87-30.64,21.76-54.11,47.67-70.41c25.91-16.29,58.59-24.45,98.03-24.45c39.76,0,70.97,8.24,93.63,24.69
				c22.65,16.46,33.98,39.2,33.98,68.21c0,5.22-0.49,10.76-1.47,16.63h-73.83c0.65-4.56,0.98-7.82,0.98-9.78
				c0-11.74-4.89-20.94-14.67-27.63c-9.78-6.68-23.96-10.02-42.54-10.02c-19.24,0-34.8,3.51-46.69,10.51
				c-11.9,7.01-19.15,16.38-21.76,28.11c-0.33,1.64-0.49,3.75-0.49,6.36c0,7.82,3.18,14.42,9.53,19.8
				c6.36,5.38,14.34,9.7,23.96,12.96c9.61,3.26,22.74,7.01,39.36,11.25c23.14,5.87,42.05,11.57,56.72,17.11
				c14.67,5.55,27.21,13.93,37.64,25.18c10.43,11.24,15.65,25.84,15.65,43.76c0,5.87-0.82,12.88-2.44,21.03
				c-6.52,30.31-23.22,53.87-50.12,70.65c-26.89,16.79-61.53,25.18-103.9,25.18c-42.71,0-75.95-8.39-99.74-25.18"/>
			<path class="st0" d="M249.26,387.73c-19.24,0-34.8,3.5-46.69,10.51c-11.9,7.01-19.16,16.38-21.76,28.11
				c-0.33,1.64-0.49,3.75-0.49,6.36c0,7.82,3.18,14.42,9.54,19.8c6.36,5.38,14.34,9.7,23.96,12.95c9.61,3.27,22.73,7.01,39.36,11.25
				c23.14,5.86,42.05,11.57,56.72,17.11c14.67,5.54,27.22,13.93,37.65,25.18c10.43,11.24,15.65,25.84,15.65,43.76
				c0,5.87-0.82,12.88-2.44,21.02c-6.52,30.32-23.22,53.87-50.12,70.65c-26.89,16.79-61.53,25.18-103.9,25.18
				c-42.71,0-75.95-8.39-99.75-25.18c-23.8-16.78-35.69-39.85-35.69-69.19c0-4.23,0.65-10.92,1.96-20.04h75.79
				c-0.66,5.22-0.98,8.8-0.98,10.76c0,13.37,5.3,23.64,15.89,30.8c10.59,7.17,26.16,10.76,46.69,10.76
				c22.81,0,40.83-4.16,54.03-12.47c13.2-8.31,19.81-19.48,19.81-33.5c0-7.82-3.1-14.34-9.29-19.56
				c-6.2-5.21-13.86-9.45-22.98-12.71c-9.13-3.26-22-7-38.62-11.24c-22.49-5.87-41-11.65-55.5-17.36
				c-14.51-5.7-26.89-14.1-37.16-25.18c-10.27-11.08-15.4-25.75-15.4-44c0-7.5,0.65-14.5,1.96-21.02
				c5.87-30.64,21.76-54.11,47.67-70.41c25.91-16.3,58.59-24.45,98.03-24.45c39.76,0,70.97,8.24,93.63,24.69"/>
		</g>
		<rect x="243.75" y="325.64" class="st0" width="242.62" height="62.27"/>
	</g>
</g>
</svg>
