<?xml version="1.0" encoding="utf-8"?>
<!-- Generator: Adobe Illustrator 26.4.1, SVG Export Plug-In . SVG Version: 6.00 Build 0)  -->
<svg version="1.1" xmlns="http://www.w3.org/2000/svg" xmlns:xlink="http://www.w3.org/1999/xlink" x="0px" y="0px"
	 viewBox="0 0 724.76 283.01" style="enable-background:new 0 0 724.76 283.01;" xml:space="preserve">
<style type="text/css">
	.st0{fill:#FFFFFF;}
	.st1{fill:#1D1D1B;}
</style>
<g id="Слой_1">
	<g>
		<g>
			<path class="st0" d="M196.6,120.86c6.81,0,12.19-1.24,16.13-3.72c3.94-2.48,5.91-5.81,5.91-10c0-2.34-0.93-4.28-2.77-5.84
				c-1.85-1.56-4.14-2.82-6.86-3.8c-2.73-0.97-6.57-2.09-11.53-3.36c-6.71-1.75-12.24-3.48-16.57-5.18
				c-4.33-1.7-8.03-4.21-11.09-7.52c-3.06-3.31-4.6-7.69-4.6-13.14c0-2.24,0.19-4.33,0.58-6.28c1.75-9.15,6.5-16.15,14.23-21.02
				c7.74-4.86,17.49-7.3,29.26-7.3c11.87,0,21.19,2.46,27.95,7.37c6.76,4.91,10.14,11.7,10.14,20.36c0,1.56-0.15,3.21-0.44,4.96
				h-22.04c0.19-1.36,0.29-2.34,0.29-2.92c0-3.5-1.46-6.25-4.38-8.25c-2.92-1.99-7.15-2.99-12.7-2.99c-5.74,0-10.39,1.05-13.94,3.14
				c-3.55,2.09-5.72,4.89-6.5,8.39c-0.1,0.49-0.15,1.12-0.15,1.9c0,2.33,0.95,4.31,2.85,5.91c1.9,1.61,4.28,2.9,7.15,3.87
				c2.87,0.97,6.79,2.09,11.75,3.36c6.91,1.75,12.55,3.46,16.93,5.11c4.38,1.66,8.12,4.16,11.24,7.52
				c3.11,3.36,4.67,7.71,4.67,13.06c0,1.75-0.24,3.85-0.73,6.28c-1.95,9.05-6.93,16.08-14.96,21.09
				c-8.03,5.01-18.37,7.52-31.02,7.52c-12.75,0-22.67-2.5-29.77-7.52"/>
			<path class="st0" d="M126.54,139.34c-5.74,0-10.39,1.05-13.94,3.14c-3.55,2.09-5.72,4.89-6.5,8.39c-0.1,0.49-0.15,1.12-0.15,1.9
				c0,2.33,0.95,4.3,2.85,5.91c1.9,1.6,4.28,2.9,7.15,3.87c2.87,0.97,6.79,2.09,11.75,3.36c6.91,1.75,12.55,3.46,16.93,5.11
				c4.38,1.65,8.12,4.16,11.24,7.52c3.11,3.36,4.67,7.71,4.67,13.06c0,1.75-0.24,3.85-0.73,6.28c-1.95,9.05-6.93,16.08-14.96,21.09
				c-8.03,5.01-18.37,7.52-31.02,7.52c-12.75,0-22.67-2.5-29.78-7.52c-7.1-5.01-10.65-11.9-10.65-20.65c0-1.26,0.19-3.26,0.58-5.98
				h22.62c-0.2,1.56-0.29,2.63-0.29,3.21c0,3.99,1.58,7.06,4.74,9.19c3.16,2.14,7.81,3.21,13.94,3.21c6.81,0,12.19-1.24,16.13-3.72
				c3.94-2.48,5.91-5.81,5.91-10c0-2.33-0.93-4.28-2.77-5.84c-1.85-1.56-4.14-2.82-6.86-3.79c-2.73-0.97-6.57-2.09-11.53-3.36
				c-6.71-1.75-12.24-3.48-16.57-5.18c-4.33-1.7-8.03-4.21-11.09-7.52c-3.07-3.31-4.6-7.69-4.6-13.14c0-2.24,0.19-4.33,0.58-6.28
				c1.75-9.15,6.5-16.15,14.23-21.02c7.74-4.86,17.49-7.3,29.26-7.3c11.87,0,21.19,2.46,27.95,7.37"/>
		</g>
		<rect x="124.89" y="120.8" class="st0" width="72.43" height="18.59"/>
		<g>
			<path class="st0" d="M247.59,150.85c3.97,0,6.87-0.78,8.7-2.34c1.83-1.56,3.13-4.17,3.91-7.82l0.35-1.75l-13.19-59.9h17.63
				c2.1,9.73,3.54,17.05,4.32,21.95c0.78,4.9,1.17,9.22,1.17,12.96c0,2.49-0.27,6-0.82,10.51h5.25c0.93-4.9,2.02-9.17,3.27-12.79
				c1.24-3.62,3.13-7.8,5.66-12.55c2.53-4.75,6.37-11.44,11.5-20.08h20.32l-37.83,60.72l-0.94,4.55c-1.56,7.63-4.4,13.08-8.52,16.35
				c-4.13,3.27-10.47,4.9-19.03,4.9c-3.11,0-6.11-0.16-8.99-0.47l3.04-14.48C245.41,150.77,246.81,150.85,247.59,150.85z"/>
			<path class="st0" d="M324.3,79.03h17.4c-0.62,2.1-1.44,4.03-2.45,5.78c-1.01,1.75-2.49,3.87-4.44,6.36l4.67,3.04
				c3.74-5.76,7.43-9.92,11.09-12.49c3.66-2.57,7.75-3.85,12.26-3.85c5.53,0,9.83,1.69,12.9,5.08c3.07,3.39,4.61,8.04,4.61,13.95
				c0,2.34-0.31,5.06-0.93,8.17L372.88,138h-17.63l6.19-31.06c0.31-1.48,0.47-2.96,0.47-4.44c0-3.19-0.84-5.64-2.51-7.36
				c-1.67-1.71-4.07-2.57-7.18-2.57c-4.13,0-7.59,1.34-10.39,4.03c-2.8,2.69-4.67,6.44-5.6,11.27L330.26,138h-17.63L324.3,79.03z"/>
			<path class="st0" d="M401.95,136.37c-4.44-2.1-7.84-5.08-10.22-8.93c-2.38-3.85-3.56-8.35-3.56-13.49c0-2.26,0.23-4.55,0.7-6.89
				c1.17-5.91,3.48-11.09,6.95-15.53c3.46-4.44,7.82-7.86,13.08-10.28c5.25-2.41,10.99-3.62,17.22-3.62
				c5.99,0,11.23,1.07,15.71,3.21c4.48,2.14,7.92,5.16,10.33,9.05c2.41,3.89,3.62,8.33,3.62,13.31c0,3.43-0.58,7.01-1.75,10.74
				H404.4c0.16,3.74,1.48,6.73,3.97,8.99c2.49,2.26,5.84,3.39,10.04,3.39c3.04,0,5.92-0.6,8.64-1.81c2.72-1.21,5.06-2.94,7.01-5.2
				h18.1c-3.43,6.46-8.12,11.44-14.07,14.95s-12.79,5.25-20.49,5.25C411.6,139.52,406.39,138.47,401.95,136.37z M439.55,103.32
				c0.08-3.89-1.13-6.97-3.62-9.22c-2.49-2.26-5.88-3.39-10.16-3.39c-4.36,0-8.25,1.15-11.68,3.44c-3.43,2.3-5.96,5.35-7.59,9.17
				H439.55z"/>
			<path class="st0" d="M472.13,79.03h16.58c-0.55,2.41-1.3,4.65-2.28,6.71c-0.97,2.06-2.59,4.77-4.85,8.12l5.14,2.69
				c3.58-6.54,7.1-11.13,10.57-13.78c3.46-2.65,7.84-3.97,13.14-3.97c0.78,0,2.18,0.08,4.2,0.23l-3.27,16.11
				c-0.86-0.08-2.06-0.12-3.62-0.12c-7.32,0-13,1.6-17.05,4.79c-4.05,3.19-6.73,8.17-8.06,14.95L478.08,138h-17.63L472.13,79.03z"/>
			<path class="st0" d="M506.86,171.92c-2.84-2.06-4.26-4.92-4.26-8.58c0-1.01,0.12-2.1,0.35-3.27c0.78-3.43,2.43-6.03,4.96-7.82
				c2.53-1.79,6.05-2.76,10.57-2.92l0.82-4.79c-2.8-0.31-4.96-1.25-6.48-2.8c-1.52-1.56-2.28-3.58-2.28-6.07
				c0-1.09,0.08-1.94,0.23-2.57c0.62-3.19,2.2-5.53,4.73-7.01c2.53-1.48,6.13-2.22,10.8-2.22h2.22l1.05-4.9
				c-4.36-0.86-7.75-2.69-10.16-5.49c-2.41-2.8-3.62-6.34-3.62-10.63c0-1.63,0.16-3.19,0.47-4.67c1.24-6.31,4.38-11.07,9.4-14.3
				c5.02-3.23,11.85-4.85,20.49-4.85h13.78c2.33,0,4.16-0.29,5.49-0.88c1.32-0.58,2.37-1.67,3.15-3.27c0.78-1.59,1.48-3.99,2.1-7.18
				h15.53c-0.86,6.54-2.24,11.31-4.15,14.3c-1.91,3-4.65,4.5-8.23,4.5c-2.18,0-4.83-0.54-7.94-1.63l-2.1,4.79
				c7.32,3.43,10.98,8.68,10.98,15.76c0,1.63-0.16,3.11-0.47,4.44c-1.25,6-4.32,10.7-9.22,14.13c-4.9,3.43-11.09,5.14-18.57,5.14
				h-12.49c-3.89,0-6.15,1.28-6.77,3.85l-0.12,0.93c0,2.26,1.44,3.62,4.32,4.09l23,3.62c4.75,0.78,8.37,2.37,10.86,4.79
				c2.49,2.41,3.74,5.56,3.74,9.46c0,1.17-0.12,2.45-0.35,3.85c-1.01,5.21-3.52,9.07-7.53,11.56c-4.01,2.49-9.59,3.74-16.76,3.74
				h-25.69C513.65,175.02,509.7,173.98,506.86,171.92z M550.77,161.3c1.13-0.74,1.85-1.77,2.16-3.09c0.47-2.41-0.93-3.93-4.2-4.55
				l-18.68-2.92c-0.55-0.08-1.29-0.12-2.22-0.12c-2.18,0-3.97,0.48-5.37,1.46c-1.4,0.97-2.3,2.43-2.69,4.38
				c-0.08,0.31-0.12,0.78-0.12,1.4c0,3.04,2.49,4.55,7.47,4.55h19.27C548.18,162.4,549.64,162.03,550.77,161.3z M553.92,112.84
				c2.92-2.14,4.73-5.04,5.43-8.7c0.16-1.09,0.23-1.91,0.23-2.45c0-2.88-1.03-5.16-3.09-6.83c-2.06-1.67-4.92-2.51-8.58-2.51
				c-4.13,0-7.65,1.07-10.57,3.21c-2.92,2.14-4.73,5-5.43,8.58c-0.16,1.25-0.23,2.1-0.23,2.57c0,2.88,1.03,5.16,3.09,6.83
				c2.06,1.67,4.88,2.51,8.47,2.51C547.44,116.05,551,114.98,553.92,112.84z"/>
			<path class="st0" d="M588.19,150.85c3.97,0,6.87-0.78,8.7-2.34c1.83-1.56,3.13-4.17,3.91-7.82l0.35-1.75l-13.19-59.9h17.63
				c2.1,9.73,3.54,17.05,4.32,21.95c0.78,4.9,1.17,9.22,1.17,12.96c0,2.49-0.27,6-0.82,10.51h5.25c0.93-4.9,2.02-9.17,3.27-12.79
				c1.25-3.62,3.13-7.8,5.66-12.55c2.53-4.75,6.36-11.44,11.5-20.08h20.32l-37.83,60.72l-0.93,4.55c-1.56,7.63-4.4,13.08-8.52,16.35
				c-4.13,3.27-10.47,4.9-19.03,4.9c-3.11,0-6.11-0.16-8.99-0.47l3.04-14.48C586.01,150.77,587.41,150.85,588.19,150.85z"/>
		</g>
		<g>
			<path class="st0" d="M190.44,174.05c-1.09,1.83-2.65,3.91-4.67,6.25l4.9,3.04c3.81-5.92,7.92-10.29,12.32-13.14
				c4.4-2.84,9.24-4.26,14.54-4.26c4.59,0,8.6,1.05,12.03,3.15c3.42,2.1,6.07,5.02,7.94,8.76s2.8,8.02,2.8,12.84
				c0,2.1-0.27,4.71-0.82,7.82c-1.17,5.68-3.25,10.72-6.25,15.12c-3,4.4-6.68,7.81-11.03,10.22c-4.36,2.41-9.07,3.62-14.13,3.62
				c-5.37,0-9.92-1.46-13.66-4.38c-3.74-2.92-6.5-7.18-8.29-12.79l-5.02,1.52c1.17,4.67,1.75,8.56,1.75,11.68
				c0,2.72-0.31,5.99-0.93,9.81c-0.62,3.81-1.67,9.03-3.15,15.65h-17.63l16.35-81.74h16.11
				C192.58,169.95,191.53,172.22,190.44,174.05z M196.1,184.97c-3.7,3.04-6.05,7.01-7.06,11.91c-0.31,1.71-0.47,3-0.47,3.85
				c0,3.74,1.23,6.71,3.68,8.93s5.78,3.33,9.98,3.33c4.98,0,9.34-1.54,13.08-4.61c3.74-3.07,6.11-7.02,7.12-11.85
				c0.23-1.32,0.35-2.57,0.35-3.74c0-3.81-1.21-6.83-3.62-9.05c-2.41-2.22-5.72-3.33-9.93-3.33
				C204.17,180.42,199.8,181.93,196.1,184.97z"/>
			<path class="st0" d="M261.95,224.38c-4.55-2.22-8.08-5.31-10.57-9.28c-2.49-3.97-3.74-8.56-3.74-13.78c0-2.18,0.23-4.36,0.7-6.54
				c1.17-5.76,3.54-10.82,7.12-15.18c3.58-4.36,8.04-7.75,13.37-10.16c5.33-2.41,11.19-3.62,17.57-3.62
				c5.99,0,11.27,1.11,15.82,3.33c4.55,2.22,8.07,5.29,10.57,9.22c2.49,3.93,3.74,8.47,3.74,13.6c0,2.1-0.23,4.32-0.7,6.66
				c-1.17,5.76-3.54,10.84-7.12,15.24c-3.58,4.4-8.04,7.8-13.37,10.22c-5.33,2.41-11.15,3.62-17.46,3.62
				C271.82,227.7,266.51,226.59,261.95,224.38z M291.73,208.44c3.7-3.04,6.05-6.97,7.06-11.79c0.31-1.71,0.47-3,0.47-3.85
				c0-3.74-1.22-6.73-3.68-8.99c-2.45-2.26-5.78-3.39-9.98-3.39c-4.98,0-9.34,1.52-13.08,4.55c-3.74,3.04-6.11,6.97-7.12,11.79
				c-0.23,1.25-0.35,2.49-0.35,3.74c0,3.82,1.21,6.85,3.62,9.11c2.41,2.26,5.76,3.39,10.04,3.39
				C283.69,212.99,288.03,211.47,291.73,208.44z"/>
			<path class="st0" d="M333.12,167.22h16.58c-0.55,2.41-1.3,4.65-2.28,6.71c-0.97,2.06-2.59,4.77-4.85,8.11l5.14,2.69
				c3.58-6.54,7.1-11.13,10.57-13.78c3.46-2.65,7.84-3.97,13.14-3.97c0.78,0,2.18,0.08,4.2,0.23l-3.27,16.11
				c-0.86-0.08-2.06-0.12-3.62-0.12c-7.32,0-13,1.6-17.05,4.79c-4.05,3.19-6.73,8.17-8.06,14.95l-4.55,23.24h-17.63L333.12,167.22z"
				/>
			<path class="st0" d="M396.17,226.54c-7.24,0-12.51-1.23-15.82-3.68c-3.31-2.45-4.96-6.32-4.96-11.62c0-2.1,0.31-4.71,0.93-7.82
				l10.62-53.01h19.38c-1.25,4.67-2.76,8.1-4.55,10.28c-1.79,2.18-4.83,4.32-9.11,6.42l2.22,5.14c4.36-2.18,7.96-3.6,10.8-4.26
				c2.84-0.66,6.56-0.91,11.15-0.76l-2.92,14.36h-15.53l-4.44,22.3c-0.23,1.17-0.35,2.18-0.35,3.04c0,1.63,0.54,2.84,1.63,3.62
				c1.09,0.78,2.88,1.17,5.37,1.17c2.1,0,4.71-0.23,7.82-0.7l-3.15,15.06C402.25,226.38,399.21,226.54,396.17,226.54z"/>
		</g>
	</g>
</g>
<g id="Слой_2">
</g>
</svg>
